<svg width="36" height="36" viewBox="0 0 36 36" fill="none" xmlns="http://www.w3.org/2000/svg">
<g clip-path="url(#clip0_13_60)">
<path d="M18.0003 0C8.06019 0 -0.00012207 8.05938 -0.00012207 18.0005C-0.00012207 25.3712 4.43203 31.7026 10.7745 34.4866C10.7237 33.2298 10.7648 31.7202 11.0879 30.3545C11.434 28.8923 13.4039 20.5458 13.4039 20.5458C13.4039 20.5458 12.8288 19.3966 12.8288 17.6982C12.8288 15.0309 14.375 13.0375 16.2996 13.0375C17.9366 13.0375 18.7277 14.2671 18.7277 15.7398C18.7277 17.3857 17.6786 19.8457 17.1386 22.1275C16.6873 24.0378 18.0963 25.5946 19.9799 25.5946C23.3902 25.5946 25.6868 21.2146 25.6868 16.0242C25.6868 12.0803 23.0302 9.12739 18.1974 9.12739C12.737 9.12739 9.33542 13.1991 9.33542 17.7471C9.33542 19.3163 9.79788 20.4217 10.5225 21.2769C10.8553 21.6706 10.9014 21.8289 10.781 22.2812C10.6946 22.6122 10.4962 23.4092 10.4145 23.7254C10.295 24.1814 9.92572 24.3438 9.51311 24.1758C6.99819 23.1489 5.8268 20.3949 5.8268 17.2989C5.8268 12.1851 10.139 6.05446 18.6913 6.05446C25.564 6.05446 30.0871 11.0275 30.0871 16.3671C30.0871 23.4272 26.1613 28.7026 20.3745 28.7026C18.4319 28.7026 16.6037 27.6517 15.9774 26.4591C15.9774 26.4591 14.9325 30.6055 14.7114 31.4077C14.3297 32.7955 13.5825 34.1829 12.8994 35.2634C14.5556 35.7531 16.2737 36.0018 18.0008 36.0018C27.9405 36.0009 35.9999 27.9411 35.9999 18.0005C35.9999 8.05938 27.9405 0 18.0003 0Z" fill="#5273C8"/>
</g>
<defs>
<clipPath id="clip0_13_60">
<rect width="36" height="36" fill="white"/>
</clipPath>
</defs>
</svg>
